<svg width="60" height="60" viewBox="0 0 60 60" fill="none" xmlns="http://www.w3.org/2000/svg">
<path d="M29.9412 26.0987C22.7441 26.0987 16.9098 20.2563 16.9098 13.0493C16.9098 5.84238 22.7441 1.76699e-06 29.9412 1.13832e-06C37.1383 5.09642e-07 42.9727 5.84238 42.9727 13.0493C42.9727 20.2563 37.1383 26.0987 29.9412 26.0987Z" fill="url(#paint0_linear_401_398)"/>
<path d="M29.9412 60C22.7441 60 16.9098 54.1576 16.9098 46.9507C16.9098 39.7438 22.7441 33.9014 29.9412 33.9014C37.1383 33.9014 42.9727 39.7437 42.9727 46.9507C42.9727 54.1576 37.1383 60 29.9412 60Z" fill="url(#paint1_linear_401_398)"/>
<path d="M21.7479 49.7446C15.502 53.3402 7.51548 51.2064 3.90942 44.9787C0.303374 38.7509 2.44336 30.7875 8.68923 27.1919C14.9351 23.5963 22.9216 25.7301 26.5277 31.9579C30.1337 38.1856 27.9938 46.149 21.7479 49.7446Z" fill="url(#paint2_linear_401_398)"/>
<path d="M51.194 32.7956C44.9481 36.3912 36.9612 34.2569 33.3548 28.0285C29.7484 21.8001 31.8881 13.8362 38.134 10.2406C44.3798 6.64502 52.3667 8.77932 55.9731 15.0077C59.5795 21.2361 57.4398 29.2 51.194 32.7956Z" fill="url(#paint3_linear_401_398)"/>
<path d="M51.1929 27.1925C57.4385 30.7886 59.5778 38.7521 55.9713 44.9796C52.3647 51.207 44.378 53.3402 38.1324 49.7441C31.8868 46.148 29.7475 38.1844 33.354 31.957C36.9606 25.7295 44.9473 23.5964 51.1929 27.1925Z" fill="url(#paint4_linear_401_398)"/>
<path d="M21.747 10.2413C27.9934 13.8374 30.1337 21.8012 26.5275 28.0288C22.9212 34.2565 14.9341 36.3897 8.6877 32.7936C2.4413 29.1974 0.301031 21.2337 3.90727 15.006C7.5135 8.7784 15.5006 6.64515 21.747 10.2413Z" fill="url(#paint5_linear_401_398)"/>
<path d="M30.0015 45.8867L30.0028 13.9795" stroke="white" stroke-miterlimit="79.8403" stroke-linecap="round" stroke-linejoin="round"/>
<path d="M43.8575 21.9566L16.1401 37.9102" stroke="white" stroke-miterlimit="79.8403" stroke-linecap="round" stroke-linejoin="round"/>
<path d="M16.1401 21.9566L43.8575 37.9102" stroke="white" stroke-miterlimit="79.8403" stroke-linecap="round" stroke-linejoin="round"/>
<path d="M29.9412 26.0987C22.7441 26.0987 16.9098 20.2563 16.9098 13.0493C16.9098 5.84238 22.7441 1.76699e-06 29.9412 1.13832e-06C37.1383 5.09642e-07 42.9727 5.84238 42.9727 13.0493C42.9727 20.2563 37.1383 26.0987 29.9412 26.0987Z" fill="url(#paint6_linear_401_398)"/>
<path d="M29.9412 60C22.7441 60 16.9098 54.1576 16.9098 46.9507C16.9098 39.7438 22.7441 33.9014 29.9412 33.9014C37.1383 33.9014 42.9727 39.7437 42.9727 46.9507C42.9727 54.1576 37.1383 60 29.9412 60Z" fill="url(#paint7_linear_401_398)"/>
<path d="M21.7479 49.7446C15.502 53.3402 7.51548 51.2064 3.90942 44.9787C0.303374 38.7509 2.44336 30.7875 8.68923 27.1919C14.9351 23.5963 22.9216 25.7301 26.5277 31.9579C30.1337 38.1856 27.9938 46.149 21.7479 49.7446Z" fill="url(#paint8_linear_401_398)"/>
<path d="M51.194 32.7956C44.9481 36.3912 36.9612 34.2569 33.3548 28.0285C29.7484 21.8001 31.8881 13.8362 38.134 10.2406C44.3798 6.64502 52.3667 8.77932 55.9731 15.0077C59.5795 21.2361 57.4398 29.2 51.194 32.7956Z" fill="url(#paint9_linear_401_398)"/>
<path d="M51.1929 27.1925C57.4385 30.7886 59.5778 38.7521 55.9713 44.9796C52.3647 51.207 44.378 53.3402 38.1324 49.7441C31.8868 46.148 29.7475 38.1844 33.354 31.957C36.9606 25.7295 44.9473 23.5964 51.1929 27.1925Z" fill="url(#paint10_linear_401_398)"/>
<path d="M21.747 10.2413C27.9934 13.8374 30.1337 21.8012 26.5275 28.0288C22.9212 34.2565 14.9341 36.3897 8.6877 32.7936C2.4413 29.1974 0.301031 21.2337 3.90727 15.006C7.5135 8.7784 15.5006 6.64515 21.747 10.2413Z" fill="url(#paint11_linear_401_398)"/>
<path d="M30.0015 45.8867L30.0028 13.9795" stroke="white" stroke-miterlimit="79.8403" stroke-linecap="round" stroke-linejoin="round"/>
<path d="M43.8575 21.9566L16.1401 37.9102" stroke="white" stroke-miterlimit="79.8403" stroke-linecap="round" stroke-linejoin="round"/>
<path d="M16.1401 21.9566L43.8575 37.9102" stroke="white" stroke-miterlimit="79.8403" stroke-linecap="round" stroke-linejoin="round"/>
<path d="M29.9412 26.0987C22.7441 26.0987 16.9098 20.2563 16.9098 13.0493C16.9098 5.84238 22.7441 1.76699e-06 29.9412 1.13832e-06C37.1383 5.09642e-07 42.9727 5.84238 42.9727 13.0493C42.9727 20.2563 37.1383 26.0987 29.9412 26.0987Z" fill="url(#paint12_linear_401_398)"/>
<path d="M29.9412 60C22.7441 60 16.9098 54.1576 16.9098 46.9507C16.9098 39.7438 22.7441 33.9014 29.9412 33.9014C37.1383 33.9014 42.9727 39.7437 42.9727 46.9507C42.9727 54.1576 37.1383 60 29.9412 60Z" fill="url(#paint13_linear_401_398)"/>
<path d="M21.7479 49.7446C15.502 53.3402 7.51548 51.2064 3.90942 44.9787C0.303374 38.7509 2.44336 30.7875 8.68923 27.1919C14.9351 23.5963 22.9216 25.7301 26.5277 31.9579C30.1337 38.1856 27.9938 46.149 21.7479 49.7446Z" fill="url(#paint14_linear_401_398)"/>
<path d="M51.194 32.7956C44.9481 36.3912 36.9612 34.2569 33.3548 28.0285C29.7484 21.8001 31.8881 13.8362 38.134 10.2406C44.3798 6.64502 52.3667 8.77932 55.9731 15.0077C59.5795 21.2361 57.4398 29.2 51.194 32.7956Z" fill="url(#paint15_linear_401_398)"/>
<path d="M51.1929 27.1925C57.4385 30.7886 59.5778 38.7521 55.9713 44.9796C52.3647 51.207 44.378 53.3402 38.1324 49.7441C31.8868 46.148 29.7475 38.1844 33.354 31.957C36.9606 25.7295 44.9473 23.5964 51.1929 27.1925Z" fill="url(#paint16_linear_401_398)"/>
<path d="M21.747 10.2413C27.9934 13.8374 30.1337 21.8012 26.5275 28.0288C22.9212 34.2565 14.9341 36.3897 8.6877 32.7936C2.4413 29.1974 0.301031 21.2337 3.90727 15.006C7.5135 8.7784 15.5006 6.64515 21.747 10.2413Z" fill="url(#paint17_linear_401_398)"/>
<path d="M30.0015 45.8867L30.0028 13.9795" stroke="white" stroke-miterlimit="79.8403" stroke-linecap="round" stroke-linejoin="round"/>
<path d="M43.8575 21.9566L16.1401 37.9102" stroke="white" stroke-miterlimit="79.8403" stroke-linecap="round" stroke-linejoin="round"/>
<path d="M16.1401 21.9566L43.8575 37.9102" stroke="white" stroke-miterlimit="79.8403" stroke-linecap="round" stroke-linejoin="round"/>
<defs>
<linearGradient id="paint0_linear_401_398" x1="45.2499" y1="5.01641" x2="17.0341" y2="52.7476" gradientUnits="userSpaceOnUse">
<stop offset="0.02" stop-color="#0064FF"/>
<stop offset="0.06" stop-color="#005FFF" stop-opacity="0.86"/>
<stop offset="0.11" stop-color="#005BFF" stop-opacity="0.72"/>
<stop offset="0.17" stop-color="#0057FF" stop-opacity="0.59"/>
<stop offset="0.23" stop-color="#0053FF" stop-opacity="0.48"/>
<stop offset="0.3" stop-color="#0051FF" stop-opacity="0.4"/>
<stop offset="0.38" stop-color="#004FFF" stop-opacity="0.33"/>
<stop offset="0.48" stop-color="#004DFF" stop-opacity="0.28"/>
<stop offset="0.61" stop-color="#004CFF" stop-opacity="0.26"/>
<stop offset="1" stop-color="#004CFF" stop-opacity="0.25"/>
</linearGradient>
<linearGradient id="paint1_linear_401_398" x1="45.7499" y1="5.01643" x2="13.788" y2="57.4967" gradientUnits="userSpaceOnUse">
<stop offset="0.02" stop-color="#0064FF"/>
<stop offset="0.06" stop-color="#005FFF" stop-opacity="0.86"/>
<stop offset="0.11" stop-color="#005BFF" stop-opacity="0.72"/>
<stop offset="0.17" stop-color="#0057FF" stop-opacity="0.59"/>
<stop offset="0.23" stop-color="#0053FF" stop-opacity="0.48"/>
<stop offset="0.3" stop-color="#0051FF" stop-opacity="0.4"/>
<stop offset="0.38" stop-color="#004FFF" stop-opacity="0.33"/>
<stop offset="0.48" stop-color="#004DFF" stop-opacity="0.28"/>
<stop offset="0.61" stop-color="#004CFF" stop-opacity="0.26"/>
<stop offset="1" stop-color="#004CFF" stop-opacity="0.25"/>
</linearGradient>
<linearGradient id="paint2_linear_401_398" x1="45.4999" y1="5.01586" x2="15.0367" y2="56.2459" gradientUnits="userSpaceOnUse">
<stop offset="0.02" stop-color="#0064FF"/>
<stop offset="0.06" stop-color="#005FFF" stop-opacity="0.86"/>
<stop offset="0.11" stop-color="#005BFF" stop-opacity="0.72"/>
<stop offset="0.17" stop-color="#0057FF" stop-opacity="0.59"/>
<stop offset="0.23" stop-color="#0053FF" stop-opacity="0.48"/>
<stop offset="0.3" stop-color="#0051FF" stop-opacity="0.4"/>
<stop offset="0.38" stop-color="#004FFF" stop-opacity="0.33"/>
<stop offset="0.48" stop-color="#004DFF" stop-opacity="0.28"/>
<stop offset="0.61" stop-color="#004CFF" stop-opacity="0.26"/>
<stop offset="1" stop-color="#004CFF" stop-opacity="0.25"/>
</linearGradient>
<linearGradient id="paint3_linear_401_398" x1="44.5" y1="5.01652" x2="17.7826" y2="50.9979" gradientUnits="userSpaceOnUse">
<stop offset="0.02" stop-color="#0064FF"/>
<stop offset="0.06" stop-color="#005FFF" stop-opacity="0.86"/>
<stop offset="0.11" stop-color="#005BFF" stop-opacity="0.72"/>
<stop offset="0.17" stop-color="#0057FF" stop-opacity="0.59"/>
<stop offset="0.23" stop-color="#0053FF" stop-opacity="0.48"/>
<stop offset="0.3" stop-color="#0051FF" stop-opacity="0.4"/>
<stop offset="0.38" stop-color="#004FFF" stop-opacity="0.33"/>
<stop offset="0.48" stop-color="#004DFF" stop-opacity="0.28"/>
<stop offset="0.61" stop-color="#004CFF" stop-opacity="0.26"/>
<stop offset="1" stop-color="#004CFF" stop-opacity="0.25"/>
</linearGradient>
<linearGradient id="paint4_linear_401_398" x1="42" y1="8.76303" x2="16.7806" y2="51.4962" gradientUnits="userSpaceOnUse">
<stop offset="0.02" stop-color="#0064FF"/>
<stop offset="0.06" stop-color="#005FFF" stop-opacity="0.86"/>
<stop offset="0.11" stop-color="#005BFF" stop-opacity="0.72"/>
<stop offset="0.17" stop-color="#0057FF" stop-opacity="0.59"/>
<stop offset="0.23" stop-color="#0053FF" stop-opacity="0.48"/>
<stop offset="0.3" stop-color="#0051FF" stop-opacity="0.4"/>
<stop offset="0.38" stop-color="#004FFF" stop-opacity="0.33"/>
<stop offset="0.48" stop-color="#004DFF" stop-opacity="0.28"/>
<stop offset="0.61" stop-color="#004CFF" stop-opacity="0.26"/>
<stop offset="1" stop-color="#004CFF" stop-opacity="0.25"/>
</linearGradient>
<linearGradient id="paint5_linear_401_398" x1="44.75" y1="6.01509" x2="16.5341" y2="53.2468" gradientUnits="userSpaceOnUse">
<stop offset="0.02" stop-color="#0064FF"/>
<stop offset="0.06" stop-color="#005FFF" stop-opacity="0.86"/>
<stop offset="0.11" stop-color="#005BFF" stop-opacity="0.72"/>
<stop offset="0.17" stop-color="#0057FF" stop-opacity="0.59"/>
<stop offset="0.23" stop-color="#0053FF" stop-opacity="0.48"/>
<stop offset="0.3" stop-color="#0051FF" stop-opacity="0.4"/>
<stop offset="0.38" stop-color="#004FFF" stop-opacity="0.33"/>
<stop offset="0.48" stop-color="#004DFF" stop-opacity="0.28"/>
<stop offset="0.61" stop-color="#004CFF" stop-opacity="0.26"/>
<stop offset="1" stop-color="#004CFF" stop-opacity="0.25"/>
</linearGradient>
<linearGradient id="paint6_linear_401_398" x1="45.2499" y1="5.01641" x2="17.0341" y2="52.7476" gradientUnits="userSpaceOnUse">
<stop offset="0.02" stop-color="#0064FF"/>
<stop offset="0.06" stop-color="#005FFF" stop-opacity="0.86"/>
<stop offset="0.11" stop-color="#005BFF" stop-opacity="0.72"/>
<stop offset="0.17" stop-color="#0057FF" stop-opacity="0.59"/>
<stop offset="0.23" stop-color="#0053FF" stop-opacity="0.48"/>
<stop offset="0.3" stop-color="#0051FF" stop-opacity="0.4"/>
<stop offset="0.38" stop-color="#004FFF" stop-opacity="0.33"/>
<stop offset="0.48" stop-color="#004DFF" stop-opacity="0.28"/>
<stop offset="0.61" stop-color="#004CFF" stop-opacity="0.26"/>
<stop offset="1" stop-color="#004CFF" stop-opacity="0.25"/>
</linearGradient>
<linearGradient id="paint7_linear_401_398" x1="45.7499" y1="5.01643" x2="13.788" y2="57.4967" gradientUnits="userSpaceOnUse">
<stop offset="0.02" stop-color="#0064FF"/>
<stop offset="0.06" stop-color="#005FFF" stop-opacity="0.86"/>
<stop offset="0.11" stop-color="#005BFF" stop-opacity="0.72"/>
<stop offset="0.17" stop-color="#0057FF" stop-opacity="0.59"/>
<stop offset="0.23" stop-color="#0053FF" stop-opacity="0.48"/>
<stop offset="0.3" stop-color="#0051FF" stop-opacity="0.4"/>
<stop offset="0.38" stop-color="#004FFF" stop-opacity="0.33"/>
<stop offset="0.48" stop-color="#004DFF" stop-opacity="0.28"/>
<stop offset="0.61" stop-color="#004CFF" stop-opacity="0.26"/>
<stop offset="1" stop-color="#004CFF" stop-opacity="0.25"/>
</linearGradient>
<linearGradient id="paint8_linear_401_398" x1="45.4999" y1="5.01586" x2="15.0367" y2="56.2459" gradientUnits="userSpaceOnUse">
<stop offset="0.02" stop-color="#0064FF"/>
<stop offset="0.06" stop-color="#005FFF" stop-opacity="0.86"/>
<stop offset="0.11" stop-color="#005BFF" stop-opacity="0.72"/>
<stop offset="0.17" stop-color="#0057FF" stop-opacity="0.59"/>
<stop offset="0.23" stop-color="#0053FF" stop-opacity="0.48"/>
<stop offset="0.3" stop-color="#0051FF" stop-opacity="0.4"/>
<stop offset="0.38" stop-color="#004FFF" stop-opacity="0.33"/>
<stop offset="0.48" stop-color="#004DFF" stop-opacity="0.28"/>
<stop offset="0.61" stop-color="#004CFF" stop-opacity="0.26"/>
<stop offset="1" stop-color="#004CFF" stop-opacity="0.25"/>
</linearGradient>
<linearGradient id="paint9_linear_401_398" x1="44.5" y1="5.01652" x2="17.7826" y2="50.9979" gradientUnits="userSpaceOnUse">
<stop offset="0.02" stop-color="#0064FF"/>
<stop offset="0.06" stop-color="#005FFF" stop-opacity="0.86"/>
<stop offset="0.11" stop-color="#005BFF" stop-opacity="0.72"/>
<stop offset="0.17" stop-color="#0057FF" stop-opacity="0.59"/>
<stop offset="0.23" stop-color="#0053FF" stop-opacity="0.48"/>
<stop offset="0.3" stop-color="#0051FF" stop-opacity="0.4"/>
<stop offset="0.38" stop-color="#004FFF" stop-opacity="0.33"/>
<stop offset="0.48" stop-color="#004DFF" stop-opacity="0.28"/>
<stop offset="0.61" stop-color="#004CFF" stop-opacity="0.26"/>
<stop offset="1" stop-color="#004CFF" stop-opacity="0.25"/>
</linearGradient>
<linearGradient id="paint10_linear_401_398" x1="42" y1="8.76303" x2="16.7806" y2="51.4962" gradientUnits="userSpaceOnUse">
<stop offset="0.02" stop-color="#0064FF"/>
<stop offset="0.06" stop-color="#005FFF" stop-opacity="0.86"/>
<stop offset="0.11" stop-color="#005BFF" stop-opacity="0.72"/>
<stop offset="0.17" stop-color="#0057FF" stop-opacity="0.59"/>
<stop offset="0.23" stop-color="#0053FF" stop-opacity="0.48"/>
<stop offset="0.3" stop-color="#0051FF" stop-opacity="0.4"/>
<stop offset="0.38" stop-color="#004FFF" stop-opacity="0.33"/>
<stop offset="0.48" stop-color="#004DFF" stop-opacity="0.28"/>
<stop offset="0.61" stop-color="#004CFF" stop-opacity="0.26"/>
<stop offset="1" stop-color="#004CFF" stop-opacity="0.25"/>
</linearGradient>
<linearGradient id="paint11_linear_401_398" x1="44.75" y1="6.01509" x2="16.5341" y2="53.2468" gradientUnits="userSpaceOnUse">
<stop offset="0.02" stop-color="#0064FF"/>
<stop offset="0.06" stop-color="#005FFF" stop-opacity="0.86"/>
<stop offset="0.11" stop-color="#005BFF" stop-opacity="0.72"/>
<stop offset="0.17" stop-color="#0057FF" stop-opacity="0.59"/>
<stop offset="0.23" stop-color="#0053FF" stop-opacity="0.48"/>
<stop offset="0.3" stop-color="#0051FF" stop-opacity="0.4"/>
<stop offset="0.38" stop-color="#004FFF" stop-opacity="0.33"/>
<stop offset="0.48" stop-color="#004DFF" stop-opacity="0.28"/>
<stop offset="0.61" stop-color="#004CFF" stop-opacity="0.26"/>
<stop offset="1" stop-color="#004CFF" stop-opacity="0.25"/>
</linearGradient>
<linearGradient id="paint12_linear_401_398" x1="45.2499" y1="5.01641" x2="17.0341" y2="52.7476" gradientUnits="userSpaceOnUse">
<stop offset="0.02" stop-color="#0064FF"/>
<stop offset="0.06" stop-color="#005FFF" stop-opacity="0.86"/>
<stop offset="0.11" stop-color="#005BFF" stop-opacity="0.72"/>
<stop offset="0.17" stop-color="#0057FF" stop-opacity="0.59"/>
<stop offset="0.23" stop-color="#0053FF" stop-opacity="0.48"/>
<stop offset="0.3" stop-color="#0051FF" stop-opacity="0.4"/>
<stop offset="0.38" stop-color="#004FFF" stop-opacity="0.33"/>
<stop offset="0.48" stop-color="#004DFF" stop-opacity="0.28"/>
<stop offset="0.61" stop-color="#004CFF" stop-opacity="0.26"/>
<stop offset="1" stop-color="#004CFF" stop-opacity="0.25"/>
</linearGradient>
<linearGradient id="paint13_linear_401_398" x1="45.7499" y1="5.01643" x2="13.788" y2="57.4967" gradientUnits="userSpaceOnUse">
<stop offset="0.02" stop-color="#0064FF"/>
<stop offset="0.06" stop-color="#005FFF" stop-opacity="0.86"/>
<stop offset="0.11" stop-color="#005BFF" stop-opacity="0.72"/>
<stop offset="0.17" stop-color="#0057FF" stop-opacity="0.59"/>
<stop offset="0.23" stop-color="#0053FF" stop-opacity="0.48"/>
<stop offset="0.3" stop-color="#0051FF" stop-opacity="0.4"/>
<stop offset="0.38" stop-color="#004FFF" stop-opacity="0.33"/>
<stop offset="0.48" stop-color="#004DFF" stop-opacity="0.28"/>
<stop offset="0.61" stop-color="#004CFF" stop-opacity="0.26"/>
<stop offset="1" stop-color="#004CFF" stop-opacity="0.25"/>
</linearGradient>
<linearGradient id="paint14_linear_401_398" x1="45.4999" y1="5.01586" x2="15.0367" y2="56.2459" gradientUnits="userSpaceOnUse">
<stop offset="0.02" stop-color="#0064FF"/>
<stop offset="0.06" stop-color="#005FFF" stop-opacity="0.86"/>
<stop offset="0.11" stop-color="#005BFF" stop-opacity="0.72"/>
<stop offset="0.17" stop-color="#0057FF" stop-opacity="0.59"/>
<stop offset="0.23" stop-color="#0053FF" stop-opacity="0.48"/>
<stop offset="0.3" stop-color="#0051FF" stop-opacity="0.4"/>
<stop offset="0.38" stop-color="#004FFF" stop-opacity="0.33"/>
<stop offset="0.48" stop-color="#004DFF" stop-opacity="0.28"/>
<stop offset="0.61" stop-color="#004CFF" stop-opacity="0.26"/>
<stop offset="1" stop-color="#004CFF" stop-opacity="0.25"/>
</linearGradient>
<linearGradient id="paint15_linear_401_398" x1="44.5" y1="5.01652" x2="17.7826" y2="50.9979" gradientUnits="userSpaceOnUse">
<stop offset="0.02" stop-color="#0064FF"/>
<stop offset="0.06" stop-color="#005FFF" stop-opacity="0.86"/>
<stop offset="0.11" stop-color="#005BFF" stop-opacity="0.72"/>
<stop offset="0.17" stop-color="#0057FF" stop-opacity="0.59"/>
<stop offset="0.23" stop-color="#0053FF" stop-opacity="0.48"/>
<stop offset="0.3" stop-color="#0051FF" stop-opacity="0.4"/>
<stop offset="0.38" stop-color="#004FFF" stop-opacity="0.33"/>
<stop offset="0.48" stop-color="#004DFF" stop-opacity="0.28"/>
<stop offset="0.61" stop-color="#004CFF" stop-opacity="0.26"/>
<stop offset="1" stop-color="#004CFF" stop-opacity="0.25"/>
</linearGradient>
<linearGradient id="paint16_linear_401_398" x1="42" y1="8.76303" x2="16.7806" y2="51.4962" gradientUnits="userSpaceOnUse">
<stop offset="0.02" stop-color="#0064FF"/>
<stop offset="0.06" stop-color="#005FFF" stop-opacity="0.86"/>
<stop offset="0.11" stop-color="#005BFF" stop-opacity="0.72"/>
<stop offset="0.17" stop-color="#0057FF" stop-opacity="0.59"/>
<stop offset="0.23" stop-color="#0053FF" stop-opacity="0.48"/>
<stop offset="0.3" stop-color="#0051FF" stop-opacity="0.4"/>
<stop offset="0.38" stop-color="#004FFF" stop-opacity="0.33"/>
<stop offset="0.48" stop-color="#004DFF" stop-opacity="0.28"/>
<stop offset="0.61" stop-color="#004CFF" stop-opacity="0.26"/>
<stop offset="1" stop-color="#004CFF" stop-opacity="0.25"/>
</linearGradient>
<linearGradient id="paint17_linear_401_398" x1="44.75" y1="6.01509" x2="16.5341" y2="53.2468" gradientUnits="userSpaceOnUse">
<stop offset="0.02" stop-color="#0064FF"/>
<stop offset="0.06" stop-color="#005FFF" stop-opacity="0.86"/>
<stop offset="0.11" stop-color="#005BFF" stop-opacity="0.72"/>
<stop offset="0.17" stop-color="#0057FF" stop-opacity="0.59"/>
<stop offset="0.23" stop-color="#0053FF" stop-opacity="0.48"/>
<stop offset="0.3" stop-color="#0051FF" stop-opacity="0.4"/>
<stop offset="0.38" stop-color="#004FFF" stop-opacity="0.33"/>
<stop offset="0.48" stop-color="#004DFF" stop-opacity="0.28"/>
<stop offset="0.61" stop-color="#004CFF" stop-opacity="0.26"/>
<stop offset="1" stop-color="#004CFF" stop-opacity="0.25"/>
</linearGradient>
</defs>
</svg>
