<svg width="291" height="60" viewBox="0 0 291 60" fill="none" xmlns="http://www.w3.org/2000/svg">
<path d="M29.9412 26.0987C22.7441 26.0987 16.9098 20.2563 16.9098 13.0493C16.9098 5.84238 22.7441 1.76695e-06 29.9412 1.13829e-06C37.1383 5.0963e-07 42.9727 5.84238 42.9727 13.0493C42.9727 20.2563 37.1383 26.0987 29.9412 26.0987Z" fill="url(#paint0_linear_401_338)"/>
<path d="M29.9412 60C22.7441 60 16.9098 54.1576 16.9098 46.9507C16.9098 39.7438 22.7441 33.9014 29.9412 33.9014C37.1383 33.9014 42.9727 39.7437 42.9727 46.9507C42.9727 54.1576 37.1383 60 29.9412 60Z" fill="url(#paint1_linear_401_338)"/>
<path d="M21.7479 49.7452C15.502 53.3408 7.51548 51.207 3.90942 44.9792C0.303374 38.7515 2.44336 30.7881 8.68923 27.1925C14.9351 23.5969 22.9216 25.7307 26.5277 31.9584C30.1337 38.1862 27.9938 46.1496 21.7479 49.7452Z" fill="url(#paint2_linear_401_338)"/>
<path d="M51.194 32.7955C44.9481 36.3911 36.9612 34.2568 33.3548 28.0284C29.7484 21.8 31.8881 13.8361 38.134 10.2405C44.3798 6.6449 52.3667 8.7792 55.9731 15.0076C59.5795 21.236 57.4398 29.1999 51.194 32.7955Z" fill="url(#paint3_linear_401_338)"/>
<path d="M51.1929 27.1928C57.4385 30.7889 59.5778 38.7524 55.9713 44.9799C52.3647 51.2074 44.378 53.3405 38.1324 49.7444C31.8868 46.1483 29.7475 38.1847 33.354 31.9573C36.9606 25.7298 44.9473 23.5967 51.1929 27.1928Z" fill="url(#paint4_linear_401_338)"/>
<path d="M21.747 10.2418C27.9934 13.8379 30.1337 21.8017 26.5275 28.0293C22.9212 34.257 14.9341 36.3902 8.6877 32.7941C2.4413 29.1979 0.301031 21.2342 3.90727 15.0065C7.5135 8.77889 15.5006 6.64564 21.747 10.2418Z" fill="url(#paint5_linear_401_338)"/>
<path d="M30.0015 45.8871L30.0028 13.9799" stroke="#0055D9" stroke-miterlimit="79.8403" stroke-linecap="round" stroke-linejoin="round"/>
<path d="M43.8575 21.9567L16.1401 37.9103" stroke="#0055D9" stroke-miterlimit="79.8403" stroke-linecap="round" stroke-linejoin="round"/>
<path d="M16.1401 21.9567L43.8575 37.9103" stroke="#0055D9" stroke-miterlimit="79.8403" stroke-linecap="round" stroke-linejoin="round"/>
<path d="M107.7 34.95C107.3 36.95 106.617 38.7167 105.65 40.25C104.717 41.75 103.567 43.0167 102.2 44.05C100.833 45.0833 99.2833 45.8667 97.55 46.4C95.8167 46.9 93.9667 47.15 92 47.15C89.4 47.15 87.0833 46.6833 85.05 45.75C83.0167 44.8167 81.2833 43.5167 79.85 41.85C78.45 40.1833 77.3833 38.2 76.65 35.9C75.9167 33.6 75.55 31.0667 75.55 28.3C75.55 25.5 75.95 22.95 76.75 20.65C77.55 18.35 78.6833 16.3833 80.15 14.75C81.6167 13.1167 83.3833 11.85 85.45 10.95C87.5167 10.05 89.8333 9.6 92.4 9.6C94.2667 9.6 96.0333 9.88333 97.7 10.45C99.3667 10.9833 100.85 11.7667 102.15 12.8C103.483 13.8333 104.6 15.1167 105.5 16.65C106.433 18.15 107.1 19.8667 107.5 21.8H102.55C102.283 20.6667 101.85 19.6167 101.25 18.65C100.683 17.6833 99.9667 16.85 99.1 16.15C98.2333 15.45 97.2167 14.9 96.05 14.5C94.8833 14.1 93.5833 13.9 92.15 13.9C90.55 13.9 89.05 14.2167 87.65 14.85C86.2833 15.45 85.0833 16.3667 84.05 17.6C83.0167 18.8 82.2 20.3 81.6 22.1C81.0333 23.9 80.75 25.9667 80.75 28.3C80.75 30.6 81.0333 32.65 81.6 34.45C82.1667 36.25 82.9667 37.7833 84 39.05C85.0333 40.2833 86.25 41.2333 87.65 41.9C89.05 42.5333 90.6 42.85 92.3 42.85C95.2 42.85 97.5167 42.1167 99.25 40.65C101.017 39.1833 102.183 37.2833 102.75 34.95H107.7ZM124.779 24.35C124.313 24.2833 123.863 24.2333 123.429 24.2C122.996 24.1667 122.596 24.15 122.229 24.15C120.129 24.15 118.546 24.7833 117.479 26.05C116.446 27.3167 115.929 29.4333 115.929 32.4V46.5H111.379V19.6H115.829V24.3C116.496 22.7667 117.479 21.6 118.779 20.8C120.113 19.9667 121.663 19.5167 123.429 19.45C123.663 19.45 123.879 19.45 124.079 19.45C124.279 19.45 124.513 19.4667 124.779 19.5V24.35ZM130.264 33.15C130.264 34.95 130.464 36.4833 130.864 37.75C131.298 39.0167 131.864 40.05 132.564 40.85C133.298 41.65 134.148 42.2333 135.114 42.6C136.081 42.9667 137.098 43.15 138.164 43.15C139.231 43.15 140.248 42.95 141.214 42.55C142.181 42.15 143.014 41.55 143.714 40.75C144.448 39.9167 145.014 38.8833 145.414 37.65C145.848 36.3833 146.064 34.8833 146.064 33.15C146.064 31.35 145.848 29.8167 145.414 28.55C145.014 27.2833 144.448 26.25 143.714 25.45C143.014 24.65 142.181 24.0667 141.214 23.7C140.248 23.3333 139.231 23.15 138.164 23.15C137.098 23.15 136.081 23.3333 135.114 23.7C134.148 24.0333 133.298 24.6 132.564 25.4C131.864 26.2 131.298 27.2333 130.864 28.5C130.464 29.7667 130.264 31.3167 130.264 33.15ZM125.414 33.15C125.414 30.7167 125.764 28.6167 126.464 26.85C127.198 25.0833 128.164 23.6333 129.364 22.5C130.564 21.3667 131.931 20.5333 133.464 20C134.998 19.4333 136.564 19.15 138.164 19.15C139.764 19.15 141.331 19.4333 142.864 20C144.398 20.5333 145.764 21.3667 146.964 22.5C148.164 23.6333 149.114 25.0833 149.814 26.85C150.548 28.6167 150.914 30.7167 150.914 33.15C150.914 35.5833 150.548 37.6833 149.814 39.45C149.114 41.2167 148.164 42.6667 146.964 43.8C145.764 44.9333 144.398 45.7833 142.864 46.35C141.331 46.8833 139.764 47.15 138.164 47.15C136.564 47.15 134.998 46.8833 133.464 46.35C131.931 45.7833 130.564 44.9333 129.364 43.8C128.164 42.6667 127.198 41.2167 126.464 39.45C125.764 37.6833 125.414 35.5833 125.414 33.15ZM166.67 19.6H171.37L176.72 39.5L181.87 19.6H186.77L179.02 46.5H174.87L168.92 24.85L163.17 46.5H159.02L151.27 19.6H156.17L161.32 39.5L166.67 19.6ZM207.162 10.25H211.712V46.5H207.162V42.45C206.328 43.8833 205.195 45.0333 203.762 45.9C202.328 46.7333 200.528 47.15 198.362 47.15C196.762 47.15 195.278 46.85 193.912 46.25C192.545 45.6167 191.345 44.7 190.312 43.5C189.278 42.3 188.462 40.8333 187.862 39.1C187.295 37.3667 187.012 35.3833 187.012 33.15C187.012 30.95 187.295 28.9833 187.862 27.25C188.462 25.5167 189.278 24.05 190.312 22.85C191.345 21.65 192.545 20.7333 193.912 20.1C195.278 19.4667 196.762 19.15 198.362 19.15C200.528 19.15 202.328 19.5833 203.762 20.45C205.195 21.2833 206.328 22.4167 207.162 23.85V10.25ZM207.362 33.15C207.362 31.3833 207.145 29.8667 206.712 28.6C206.278 27.3 205.695 26.25 204.962 25.45C204.228 24.6167 203.378 24.0167 202.412 23.65C201.478 23.25 200.512 23.05 199.512 23.05C197.078 23.05 195.212 23.9333 193.912 25.7C192.612 27.4333 191.962 29.9167 191.962 33.15C191.962 36.3833 192.612 38.8833 193.912 40.65C195.212 42.3833 197.078 43.25 199.512 43.25C200.512 43.25 201.478 43.0667 202.412 42.7C203.378 42.3 204.228 41.7 204.962 40.9C205.695 40.0667 206.278 39.0167 206.712 37.75C207.145 36.45 207.362 34.9167 207.362 33.15ZM215.941 34.95V30.65H231.841V34.95H215.941ZM241.955 28.5L258.305 10.25H264.655L251.105 25.05L266.205 46.5H260.105L247.655 28.8L241.955 35.1V46.5H236.855V10.25H241.955V28.5ZM272.505 19.6V46.5H267.955V19.6H272.505ZM272.505 10.25V15.75H267.955V10.25H272.505ZM279.523 12.85H284.073V19.6H289.173V23.25H284.073V39.2C284.073 39.9 284.09 40.4833 284.123 40.95C284.19 41.3833 284.306 41.7333 284.473 42C284.673 42.2667 284.956 42.45 285.323 42.55C285.69 42.65 286.206 42.7 286.873 42.7H289.173V46.5H285.873C284.573 46.5 283.506 46.4167 282.673 46.25C281.873 46.05 281.24 45.7167 280.773 45.25C280.306 44.75 279.973 44.0667 279.773 43.2C279.606 42.3 279.523 41.15 279.523 39.75V23.25H275.273V19.6H279.523V12.85Z" fill="#1E2126"/>
<defs>
<linearGradient id="paint0_linear_401_338" x1="45.2499" y1="5.01641" x2="17.0341" y2="52.7476" gradientUnits="userSpaceOnUse">
<stop offset="0.02" stop-color="#0064FF"/>
<stop offset="0.06" stop-color="#005FFF" stop-opacity="0.86"/>
<stop offset="0.11" stop-color="#005BFF" stop-opacity="0.72"/>
<stop offset="0.17" stop-color="#0057FF" stop-opacity="0.59"/>
<stop offset="0.23" stop-color="#0053FF" stop-opacity="0.48"/>
<stop offset="0.3" stop-color="#0051FF" stop-opacity="0.4"/>
<stop offset="0.38" stop-color="#004FFF" stop-opacity="0.33"/>
<stop offset="0.48" stop-color="#004DFF" stop-opacity="0.28"/>
<stop offset="0.61" stop-color="#004CFF" stop-opacity="0.26"/>
<stop offset="1" stop-color="#004CFF" stop-opacity="0.25"/>
</linearGradient>
<linearGradient id="paint1_linear_401_338" x1="29.9999" y1="52.4776" x2="79.4375" y2="-38.2322" gradientUnits="userSpaceOnUse">
<stop stop-color="#A1BFFF" stop-opacity="0.25"/>
<stop offset="1" stop-color="#679BFF" stop-opacity="0.92"/>
</linearGradient>
<linearGradient id="paint2_linear_401_338" x1="1.99988" y1="48.4809" x2="75.2003" y2="-13.0278" gradientUnits="userSpaceOnUse">
<stop stop-color="#A1BFFF" stop-opacity="0.15"/>
<stop offset="1" stop-color="#679BFF" stop-opacity="0.92"/>
</linearGradient>
<linearGradient id="paint3_linear_401_338" x1="44.5" y1="5.01639" x2="17.7826" y2="50.9978" gradientUnits="userSpaceOnUse">
<stop offset="0.02" stop-color="#0064FF"/>
<stop offset="0.06" stop-color="#005FFF" stop-opacity="0.86"/>
<stop offset="0.11" stop-color="#005BFF" stop-opacity="0.72"/>
<stop offset="0.17" stop-color="#0057FF" stop-opacity="0.59"/>
<stop offset="0.23" stop-color="#0053FF" stop-opacity="0.48"/>
<stop offset="0.3" stop-color="#0051FF" stop-opacity="0.4"/>
<stop offset="0.38" stop-color="#004FFF" stop-opacity="0.33"/>
<stop offset="0.48" stop-color="#004DFF" stop-opacity="0.28"/>
<stop offset="0.61" stop-color="#004CFF" stop-opacity="0.26"/>
<stop offset="1" stop-color="#004CFF" stop-opacity="0.25"/>
</linearGradient>
<linearGradient id="paint4_linear_401_338" x1="42" y1="8.76334" x2="16.7806" y2="51.4965" gradientUnits="userSpaceOnUse">
<stop offset="0.02" stop-color="#0064FF"/>
<stop offset="0.06" stop-color="#005FFF" stop-opacity="0.86"/>
<stop offset="0.11" stop-color="#005BFF" stop-opacity="0.72"/>
<stop offset="0.17" stop-color="#0057FF" stop-opacity="0.59"/>
<stop offset="0.23" stop-color="#0053FF" stop-opacity="0.48"/>
<stop offset="0.3" stop-color="#0051FF" stop-opacity="0.4"/>
<stop offset="0.38" stop-color="#004FFF" stop-opacity="0.33"/>
<stop offset="0.48" stop-color="#004DFF" stop-opacity="0.28"/>
<stop offset="0.61" stop-color="#004CFF" stop-opacity="0.26"/>
<stop offset="1" stop-color="#004CFF" stop-opacity="0.25"/>
</linearGradient>
<linearGradient id="paint5_linear_401_338" x1="44.75" y1="6.01558" x2="16.5341" y2="53.2473" gradientUnits="userSpaceOnUse">
<stop offset="0.02" stop-color="#0064FF"/>
<stop offset="0.06" stop-color="#005FFF" stop-opacity="0.86"/>
<stop offset="0.11" stop-color="#005BFF" stop-opacity="0.72"/>
<stop offset="0.17" stop-color="#0057FF" stop-opacity="0.59"/>
<stop offset="0.23" stop-color="#0053FF" stop-opacity="0.48"/>
<stop offset="0.3" stop-color="#0051FF" stop-opacity="0.4"/>
<stop offset="0.38" stop-color="#004FFF" stop-opacity="0.33"/>
<stop offset="0.48" stop-color="#004DFF" stop-opacity="0.28"/>
<stop offset="0.61" stop-color="#004CFF" stop-opacity="0.26"/>
<stop offset="1" stop-color="#004CFF" stop-opacity="0.25"/>
</linearGradient>
</defs>
</svg>
