<svg width="60" height="60" viewBox="0 0 60 60" fill="none" xmlns="http://www.w3.org/2000/svg">
<path d="M29.9412 26.0987C22.7441 26.0987 16.9098 20.2563 16.9098 13.0493C16.9098 5.84238 22.7441 1.76695e-06 29.9412 1.13829e-06C37.1383 5.0963e-07 42.9727 5.84238 42.9727 13.0493C42.9727 20.2563 37.1383 26.0987 29.9412 26.0987Z" fill="url(#paint0_linear_401_441)"/>
<path d="M29.9412 60C22.7441 60 16.9098 54.1576 16.9098 46.9507C16.9098 39.7438 22.7441 33.9014 29.9412 33.9014C37.1383 33.9014 42.9727 39.7437 42.9727 46.9507C42.9727 54.1576 37.1383 60 29.9412 60Z" fill="url(#paint1_linear_401_441)"/>
<path d="M21.7479 49.7452C15.502 53.3408 7.51548 51.207 3.90942 44.9792C0.303374 38.7515 2.44336 30.7881 8.68923 27.1925C14.9351 23.5969 22.9216 25.7307 26.5277 31.9584C30.1337 38.1862 27.9938 46.1496 21.7479 49.7452Z" fill="url(#paint2_linear_401_441)"/>
<path d="M51.194 32.7955C44.9481 36.3911 36.9612 34.2568 33.3548 28.0284C29.7484 21.8 31.8881 13.8361 38.134 10.2405C44.3798 6.6449 52.3667 8.7792 55.9731 15.0076C59.5795 21.236 57.4398 29.1999 51.194 32.7955Z" fill="url(#paint3_linear_401_441)"/>
<path d="M51.1929 27.1928C57.4385 30.7889 59.5778 38.7524 55.9713 44.9799C52.3647 51.2074 44.378 53.3405 38.1324 49.7444C31.8868 46.1483 29.7475 38.1847 33.354 31.9573C36.9606 25.7298 44.9473 23.5967 51.1929 27.1928Z" fill="url(#paint4_linear_401_441)"/>
<path d="M21.747 10.2418C27.9934 13.8379 30.1337 21.8017 26.5275 28.0293C22.9212 34.257 14.9341 36.3902 8.6877 32.7941C2.4413 29.1979 0.301031 21.2342 3.90727 15.0065C7.5135 8.77889 15.5006 6.64564 21.747 10.2418Z" fill="url(#paint5_linear_401_441)"/>
<path d="M30.0015 45.8871L30.0028 13.9799" stroke="#0055D9" stroke-miterlimit="79.8403" stroke-linecap="round" stroke-linejoin="round"/>
<path d="M43.8575 21.9567L16.1401 37.9103" stroke="#0055D9" stroke-miterlimit="79.8403" stroke-linecap="round" stroke-linejoin="round"/>
<path d="M16.1401 21.9567L43.8575 37.9103" stroke="#0055D9" stroke-miterlimit="79.8403" stroke-linecap="round" stroke-linejoin="round"/>
<defs>
<linearGradient id="paint0_linear_401_441" x1="45.2499" y1="5.01641" x2="17.0341" y2="52.7476" gradientUnits="userSpaceOnUse">
<stop offset="0.02" stop-color="#0064FF"/>
<stop offset="0.06" stop-color="#005FFF" stop-opacity="0.86"/>
<stop offset="0.11" stop-color="#005BFF" stop-opacity="0.72"/>
<stop offset="0.17" stop-color="#0057FF" stop-opacity="0.59"/>
<stop offset="0.23" stop-color="#0053FF" stop-opacity="0.48"/>
<stop offset="0.3" stop-color="#0051FF" stop-opacity="0.4"/>
<stop offset="0.38" stop-color="#004FFF" stop-opacity="0.33"/>
<stop offset="0.48" stop-color="#004DFF" stop-opacity="0.28"/>
<stop offset="0.61" stop-color="#004CFF" stop-opacity="0.26"/>
<stop offset="1" stop-color="#004CFF" stop-opacity="0.25"/>
</linearGradient>
<linearGradient id="paint1_linear_401_441" x1="29.9999" y1="52.4776" x2="79.4375" y2="-38.2322" gradientUnits="userSpaceOnUse">
<stop stop-color="#A1BFFF" stop-opacity="0.25"/>
<stop offset="1" stop-color="#679BFF" stop-opacity="0.92"/>
</linearGradient>
<linearGradient id="paint2_linear_401_441" x1="1.99988" y1="48.4809" x2="75.2003" y2="-13.0278" gradientUnits="userSpaceOnUse">
<stop stop-color="#A1BFFF" stop-opacity="0.15"/>
<stop offset="1" stop-color="#679BFF" stop-opacity="0.92"/>
</linearGradient>
<linearGradient id="paint3_linear_401_441" x1="44.5" y1="5.01639" x2="17.7826" y2="50.9978" gradientUnits="userSpaceOnUse">
<stop offset="0.02" stop-color="#0064FF"/>
<stop offset="0.06" stop-color="#005FFF" stop-opacity="0.86"/>
<stop offset="0.11" stop-color="#005BFF" stop-opacity="0.72"/>
<stop offset="0.17" stop-color="#0057FF" stop-opacity="0.59"/>
<stop offset="0.23" stop-color="#0053FF" stop-opacity="0.48"/>
<stop offset="0.3" stop-color="#0051FF" stop-opacity="0.4"/>
<stop offset="0.38" stop-color="#004FFF" stop-opacity="0.33"/>
<stop offset="0.48" stop-color="#004DFF" stop-opacity="0.28"/>
<stop offset="0.61" stop-color="#004CFF" stop-opacity="0.26"/>
<stop offset="1" stop-color="#004CFF" stop-opacity="0.25"/>
</linearGradient>
<linearGradient id="paint4_linear_401_441" x1="42" y1="8.76334" x2="16.7806" y2="51.4965" gradientUnits="userSpaceOnUse">
<stop offset="0.02" stop-color="#0064FF"/>
<stop offset="0.06" stop-color="#005FFF" stop-opacity="0.86"/>
<stop offset="0.11" stop-color="#005BFF" stop-opacity="0.72"/>
<stop offset="0.17" stop-color="#0057FF" stop-opacity="0.59"/>
<stop offset="0.23" stop-color="#0053FF" stop-opacity="0.48"/>
<stop offset="0.3" stop-color="#0051FF" stop-opacity="0.4"/>
<stop offset="0.38" stop-color="#004FFF" stop-opacity="0.33"/>
<stop offset="0.48" stop-color="#004DFF" stop-opacity="0.28"/>
<stop offset="0.61" stop-color="#004CFF" stop-opacity="0.26"/>
<stop offset="1" stop-color="#004CFF" stop-opacity="0.25"/>
</linearGradient>
<linearGradient id="paint5_linear_401_441" x1="44.75" y1="6.01558" x2="16.5341" y2="53.2473" gradientUnits="userSpaceOnUse">
<stop offset="0.02" stop-color="#0064FF"/>
<stop offset="0.06" stop-color="#005FFF" stop-opacity="0.86"/>
<stop offset="0.11" stop-color="#005BFF" stop-opacity="0.72"/>
<stop offset="0.17" stop-color="#0057FF" stop-opacity="0.59"/>
<stop offset="0.23" stop-color="#0053FF" stop-opacity="0.48"/>
<stop offset="0.3" stop-color="#0051FF" stop-opacity="0.4"/>
<stop offset="0.38" stop-color="#004FFF" stop-opacity="0.33"/>
<stop offset="0.48" stop-color="#004DFF" stop-opacity="0.28"/>
<stop offset="0.61" stop-color="#004CFF" stop-opacity="0.26"/>
<stop offset="1" stop-color="#004CFF" stop-opacity="0.25"/>
</linearGradient>
</defs>
</svg>
